<?xml version="1.0" encoding="UTF-8"?>
<svg width="100px" height="100px" viewBox="0 0 100 100" version="1.1" xmlns="http://www.w3.org/2000/svg" xmlns:xlink="http://www.w3.org/1999/xlink">
  <title>icon-mask</title>
  <g id="Icons" stroke="none" stroke-width="1" fill="none" fill-rule="evenodd">
    <g id="icon-mask" fill="#D5D5D5">
      <path d="M50,100 C22.3857625,100 0,77.6142375 0,50 C0,22.3857625 22.3857625,0 50,0 C77.6142375,0 100,22.3857625 100,50 C100,77.6142375 77.6142375,100 50,100 Z M70.7816123,43.4196131 C70.4401007,41.5872804 69.5593601,40.1463198 68.1393907,39.0967312 C68.0674935,39.0433622 68.0135706,39.0122304 67.977622,39.0033356 C67.9416734,38.9944407 67.9102184,39.0033356 67.8832569,39.03002 C67.8562955,39.0567045 67.8338276,39.1234156 67.8158533,39.2301534 C67.6181361,40.3509006 67.3035859,41.5339115 66.8722028,42.7791861 C65.919565,45.4654214 64.526557,47.6535468 62.6931788,49.3435624 C60.6800575,51.2114743 58.1007459,52.4923282 54.955244,53.1861241 C53.1038914,53.5952857 50.9829244,53.7820769 48.5923429,53.7464977 L45.0603936,53.7464977 C44.3773704,53.7464977 43.990923,54.075606 43.9010515,54.7338225 C43.7392828,55.7300423 43.4966298,57.2199244 43.1730925,59.203469 C42.8495551,61.1870136 42.6069021,62.6768957 42.4451335,63.6731154 C42.2833648,64.6693351 42.0452054,66.1636647 41.7306552,68.1561041 C41.416105,70.1485435 41.1779455,71.642873 41.0161769,72.6390927 C40.962254,73.0126751 41.0431383,73.3328886 41.2588299,73.5997332 C41.4745214,73.8665777 41.7710973,74 42.1485576,74 L48.9158803,74 C49.3652377,74 49.7651658,73.8532355 50.1156646,73.5597065 C50.4661634,73.2661775 50.6863485,72.8881477 50.77622,72.4256171 L50.8301429,72.0253502 L52.3130224,62.7925284 L52.4208682,62.2855237 C52.5107396,61.8229931 52.7264312,61.4449633 53.0679428,61.1514343 C53.4094545,60.8579053 53.804889,60.7111408 54.2542464,60.7111408 L55.44055,60.7111408 C64.0322639,60.7111408 69.1100027,56.7618412 70.6737665,48.8632422 C71.069201,46.7284857 71.1051496,44.9139426 70.7816123,43.4196131 Z M66,35.8254865 C66,33.7740113 65.4934682,32.0104624 64.4804047,30.5348399 C63.4673412,29.0592174 62.0015369,27.9525005 60.0829918,27.2146893 C59.2223361,26.8727767 58.2227203,26.5848504 57.0841445,26.3509102 C55.9455686,26.1169701 55.0714652,26 54.461834,26 L38.3783299,26 C37.8583504,26 37.3966445,26.1709563 36.9932121,26.5128688 C36.5897797,26.8547813 36.3432377,27.2866709 36.2535861,27.8085374 L30.013832,67.5153798 C29.960041,67.9112785 30.0631404,68.2576899 30.3231301,68.5546139 C30.5831199,68.851538 30.9103484,69 31.3048156,69 L39.2389857,69 C39.4362193,69 39.5438012,68.910023 39.5617316,68.7300691 C41.0499488,59.3364721 41.8119877,54.567692 41.8478484,54.4237288 C42.1705943,52.6961707 43.2284836,51.8323917 45.0215164,51.8323917 L47.4421107,51.8593848 C49.0558402,51.8593848 49.8627049,51.8503871 49.8627049,51.8323917 C52.3550205,51.7964009 54.6142418,51.4184976 56.6403689,50.6986817 C60.6209016,49.2230592 63.3283811,46.3887843 64.7628074,42.1958569 C65.5876025,39.8744507 66,37.7509939 66,35.8254865 Z" id="Combined-Shape"></path>
    </g>
  </g>
</svg>