<?xml version="1.0" encoding="UTF-8"?>
<svg width="100px" height="100px" viewBox="0 0 100 100" version="1.1" xmlns="http://www.w3.org/2000/svg" xmlns:xlink="http://www.w3.org/1999/xlink">
    <!-- Generator: Sketch 46.2 (44496) - http://www.bohemiancoding.com/sketch -->
    <title>icon</title>
    <desc>Created with Sketch.</desc>
    <defs>
        <linearGradient x1="24.5820312%" y1="7.52734375%" x2="66.4335938%" y2="100%" id="linearGradient-1">
            <stop stop-color="#003675" offset="0%"></stop>
            <stop stop-color="#009AD7" offset="100%"></stop>
        </linearGradient>
    </defs>
    <g id="Icons" stroke="none" stroke-width="1" fill="none" fill-rule="evenodd">
        <g id="icon">
            <circle id="Combined-Shape" fill="url(#linearGradient-1)" cx="50" cy="50" r="50"></circle>
            <g id="paypal" transform="translate(30.000000, 26.000000)" fill-rule="nonzero">
                <path d="M36.1712163,12.5688345 C36.2523175,11.8994405 36.2946922,11.2178843 36.2946922,10.5262563 C36.2946922,4.71283784 31.655083,0 25.9317851,0 L8.61315917,0 C7.52376444,0 6.59367242,0.799092061 6.41294851,1.89026605 L0.0314863679,40.4172403 C-0.197505413,41.7997361 0.851666082,43.059565 2.23169703,43.059565 L8.56554609,43.059565 C9.65494081,43.059565 10.6025253,42.2610431 10.7831556,41.1697741 C10.7831556,41.1697741 10.7937259,41.1058277 10.8128086,40.9906672 L10.8129021,40.9906672 L9.93023608,46.3197846 C9.72855868,47.5381862 10.6532252,48.6486486 11.869557,48.6486486 L17.4107278,48.6486486 C18.3709405,48.6486486 19.190746,47.9442884 19.3499552,46.9825274 L20.9241801,37.4789379 C21.1955466,35.8406567 22.591854,34.6410684 24.2272556,34.6410684 L25.6829624,34.6410684 C33.590101,34.6410684 40,28.1300359 40,20.098353 C40,16.9904455 38.4876066,14.2432221 36.1712163,12.5688345 Z" id="Shape" fill="#FFFFFF"></path>
                <path d="M36.149226,11.8918919 C35.1525462,20.2339875 28.2423961,26.6935238 19.8653562,26.6935238 L15.0047313,26.6935238 C13.9076685,26.6935238 12.9601924,27.4453666 12.6629948,28.5084201 L9.75762711,46.275896 C9.55469732,47.5172545 10.4846746,48.6486486 11.7079923,48.6486486 L17.2809883,48.6486486 C18.2467159,48.6486486 19.0712299,47.931073 19.2313535,46.9512671 L20.8146199,37.2693678 C21.0875449,35.6003485 22.4918718,34.3782531 24.1366663,34.3782531 L25.6007337,34.3782531 C33.5532863,34.3782531 40,27.7450582 40,19.562682 L40,19.562682 C40,16.3964628 38.4789203,13.597695 36.149226,11.8918919 Z" id="Shape" fill="#9CD3E6"></path>
                <path d="M15.2366682,27.3722364 L19.9351182,27.3722364 C28.0327486,27.3722364 34.7123411,20.9050359 35.6756757,12.5531394 C34.2308102,11.4574243 32.4651061,10.8108108 30.5566251,10.8108108 L18.2932752,10.8108108 C16.8970631,10.8108108 15.7049218,11.8853017 15.4732049,13.352587 L12.972973,29.1891892 C13.2602546,28.1248743 14.176209,27.3722364 15.2366682,27.3722364 Z" id="Shape" fill="#E2EFF6"></path>
            </g>
        </g>
    </g>
</svg>